# xmcd
#
# Track frame offsets:
#	150
#	13031
#	24935
#	45563
#	65817
#	81194
#	100511
#	117377
#	132266
#	144048
#	158922
#	179542
#
# Disc length: 2574 seconds
#
# Revision: 1
# Processed by: cddbd v1.5.1PL2 Copyright (c) Steve Scherf et al.
# Submitted via: EasyCDDAExtractor 9.1.3.1
#
DISCID=960a0c0c
DTITLE=Johnny Cash - American V: A Hundred Highways
DYEAR=2006
DGENRE=Traditional Country
TTITLE0=Help Me
TTITLE1=God's Gonna Cut You Down
TTITLE2=Like The 309
TTITLE3=If You Could Read My Mind
TTITLE4=Further On Up The Road
TTITLE5=On The Evening Train
TTITLE6=I Came To Believe
TTITLE7=Love's Been Good To Me
TTITLE8=A Legend In My Own Time
TTITLE9=Rose Of My Heart
TTITLE10=Four Strong Winds
TTITLE11=I'm Free From The Chain Gang Now
EXTD=
EXTT0=
EXTT1=
EXTT2=
EXTT3=
EXTT4=
EXTT5=
EXTT6=
EXTT7=
EXTT8=
EXTT9=
EXTT10=
EXTT11=
PLAYORDER=
